<svg width="18" height="17" viewBox="0 0 18 17" fill="none" xmlns="http://www.w3.org/2000/svg">
<path fill-rule="evenodd" clip-rule="evenodd" d="M1.12151 0.292893C1.51203 -0.097631 2.1452 -0.0976311 2.53572 0.292893L9.41435 7.17153L16.293 0.292895C16.6835 -0.0976294 17.3167 -0.0976294 17.7072 0.292895C18.0977 0.683419 18.0977 1.31658 17.7072 1.70711L10.8286 8.58574L17.385 15.1421C17.7755 15.5327 17.7755 16.1658 17.385 16.5564C16.9944 16.9469 16.3613 16.9469 15.9707 16.5564L9.41435 9.99996L2.85796 16.5564C2.46743 16.9469 1.83427 16.9469 1.44374 16.5564C1.05322 16.1658 1.05322 15.5327 1.44374 15.1421L8.00014 8.58574L1.12151 1.70711C0.730982 1.31658 0.730982 0.683417 1.12151 0.292893Z" fill="#eb6922"/>
</svg>
