<svg width="55" height="55" viewBox="0 0 55 55" fill="none" xmlns="http://www.w3.org/2000/svg">
<path d="M21.0677 3.15936C24.6644 -0.284706 30.3356 -0.284707 33.9323 3.15936C35.6132 4.76889 37.8364 5.68978 40.1631 5.74022C45.1417 5.84815 49.1519 9.85834 49.2598 14.8369C49.3102 17.1636 50.2311 19.3868 51.8406 21.0677C55.2847 24.6644 55.2847 30.3356 51.8406 33.9323C50.2311 35.6132 49.3102 37.8364 49.2598 40.1631C49.1519 45.1417 45.1417 49.1519 40.1631 49.2598C37.8364 49.3102 35.6132 50.2311 33.9323 51.8406C30.3356 55.2847 24.6644 55.2847 21.0677 51.8406C19.3868 50.2311 17.1636 49.3102 14.8369 49.2598C9.85834 49.1519 5.84815 45.1417 5.74022 40.1631C5.68978 37.8364 4.76889 35.6132 3.15936 33.9323C-0.284707 30.3356 -0.284706 24.6644 3.15936 21.0677C4.76889 19.3868 5.68978 17.1636 5.74022 14.8369C5.84815 9.85834 9.85834 5.84815 14.8369 5.74022C17.1636 5.68978 19.3868 4.76889 21.0677 3.15936Z" fill="white"/>
</svg>
