<svg width="26" height="18" viewBox="0 0 26 18" fill="none" xmlns="http://www.w3.org/2000/svg">
<path d="M10.1256 9.97113C10.1256 9.08228 11.1984 8.63519 11.8296 9.26101L15.1727 12.5756C15.5672 12.9668 15.5672 13.6046 15.1727 13.9958L11.8296 17.3104C11.1984 17.9362 10.1256 17.4891 10.1256 16.6003L10.1256 14.7143L1 14.7143C0.447716 14.7143 0 14.2666 0 13.7143L0 12.8571C0 12.3049 0.447715 11.8571 1 11.8571L10.1256 11.8571V9.97113ZM10.8273 5.42441C10.4328 5.0332 10.4328 4.39537 10.8273 4.00416L14.1704 0.689575C14.8016 0.0637577 15.8744 0.510853 15.8744 1.3997V3.28571L25 3.28571C25.5523 3.28571 26 3.73343 26 4.28571V5.14286C26 5.69514 25.5523 6.14286 25 6.14286L15.8744 6.14286V8.02887C15.8744 8.91772 14.8016 9.36481 14.1704 8.739L10.8273 5.42441Z" fill="black"/>
</svg>
