<svg width="22" height="29" viewBox="0 0 22 29" fill="none" xmlns="http://www.w3.org/2000/svg">
<path fill-rule="evenodd" clip-rule="evenodd" d="M20.9423 12.2621H19.3596C19.1566 12.2621 18.9538 12.0998 18.9538 11.8562V8.12229C18.9538 3.82009 15.6257 0.16704 11.3236 0.00527326C6.81837 -0.157187 3.08448 3.45502 3.08448 7.96001V11.8969C3.08448 12.1 2.92223 12.3028 2.67864 12.3028H1.09584C0.486969 12.3028 0 12.7897 0 13.3986V27.7661C0 28.3749 0.486969 28.8619 1.09584 28.8619H20.9018C21.5107 28.8619 21.9976 28.3749 21.9976 27.7661V13.3579C22.0382 12.749 21.5512 12.2621 20.9423 12.2621ZM5.55999 7.95987C5.55999 4.83459 8.15749 2.31839 11.3236 2.48068C14.2864 2.64294 16.5591 5.15932 16.5591 8.12215V11.8966C16.5591 12.0997 16.3968 12.3025 16.1532 12.3025L5.92541 12.3027C5.72239 12.3027 5.51957 12.1404 5.51957 11.8968V7.95991L5.55999 7.95987ZM15.869 17.7694V19.6585C15.869 19.6871 15.8577 19.7146 15.8374 19.7348C15.8171 19.7551 15.7896 19.7665 15.761 19.7665H8.82704V20.5798C8.82737 20.6429 8.81022 20.7049 8.7774 20.7589C8.74458 20.8128 8.69743 20.8566 8.64124 20.8854C8.58994 20.9122 8.53284 20.9263 8.47492 20.9264C8.40365 20.9265 8.33404 20.905 8.27511 20.8648L5.64739 18.9975C5.55523 18.9315 5.50054 18.8251 5.50054 18.7118C5.50054 18.5984 5.55523 18.492 5.64739 18.4261L8.27299 16.5641C8.34318 16.5146 8.42912 16.4926 8.51448 16.5022C8.59985 16.5117 8.67874 16.5521 8.73633 16.6159C8.79393 16.6796 8.82617 16.7622 8.82708 16.8482V17.6615L15.7611 17.6614C15.7897 17.6614 15.8172 17.6728 15.8374 17.693C15.8577 17.7133 15.8691 17.7408 15.8691 17.7694L15.869 17.7694ZM15.7206 23.3351C15.8128 23.2703 15.868 23.1648 15.8685 23.0521L15.8685 23.0522C15.8698 22.9377 15.815 22.83 15.7217 22.7638L13.0961 20.9018C13.0436 20.8645 12.9819 20.8424 12.9177 20.8378C12.8535 20.8332 12.7893 20.8463 12.7321 20.8758C12.6748 20.9048 12.6268 20.9493 12.5932 21.004C12.5597 21.0587 12.542 21.1216 12.542 21.1858V21.998H5.60798C5.54831 21.998 5.5 22.0463 5.5 22.106V23.9961C5.5 24.0557 5.54831 24.1041 5.60798 24.1041L12.542 24.104V24.9163C12.5415 24.9796 12.5586 25.0418 12.5914 25.096C12.6242 25.1501 12.6714 25.1941 12.7278 25.2231C12.7787 25.2497 12.8354 25.2638 12.893 25.2641C12.9654 25.2638 13.0361 25.242 13.0961 25.2014L15.7206 23.3351Z" fill="black"/>
</svg>
