<svg width="34" height="18" viewBox="0 0 34 18" fill="none" xmlns="http://www.w3.org/2000/svg">
<path d="M18.6087 6.24748V6.3299H15.3896V6.24748C15.3896 5.36166 16.1107 4.64062 17.0019 4.64062C17.8877 4.64062 18.6087 5.36166 18.6087 6.24748Z" fill="black"/>
<path d="M30.7079 11.1458H30.6668C31.2281 7.71565 27.9214 4.95975 24.7437 5.83043C23.7651 2.4208 20.5974 0 17.0024 0C13.3917 0 10.2241 2.42594 9.25614 5.84583C6.01112 4.91862 2.74582 7.7464 3.28653 11.1458C0.896531 11.1974 -0.643331 13.5306 0.263093 15.7042C0.783305 16.9556 1.94721 17.7385 3.30193 17.7385H30.7088C32.5218 17.7385 34 16.2603 34 14.4422C33.9998 12.624 32.5216 11.1458 30.7085 11.1458H30.7079ZM22.6523 14.226C22.6523 15.3075 21.7717 16.1885 20.6899 16.1885L13.3092 16.1882C12.2278 16.1882 11.3467 15.3075 11.3467 14.2257V8.29231C11.3467 7.58155 11.7278 6.95324 12.2996 6.61332V6.24744C12.2996 3.65664 14.4113 1.55015 17.0021 1.55015C21.7524 1.55015 21.6781 6.56175 21.6993 6.61309C22.2712 6.95305 22.6522 7.58137 22.6522 8.29207L22.6523 14.226Z" fill="black"/>
<path d="M20.6899 7.36035H13.3093C12.7994 7.36035 12.377 7.78273 12.377 8.2927V14.2264C12.377 14.7363 12.7993 15.1587 13.3093 15.1587H20.6899C21.1999 15.1587 21.6223 14.7363 21.6223 14.2264V8.29251C21.6223 7.78257 21.1999 7.36041 20.6899 7.36041V7.36035ZM17.517 12.032C17.517 12.3152 17.2852 12.547 17.0019 12.547C16.7136 12.547 16.4869 12.3152 16.4869 12.032V10.4867C16.4869 10.2035 16.7136 9.97164 17.0019 9.97164C17.2852 9.97164 17.517 10.2035 17.517 10.4867V12.032Z" fill="black"/>
<path d="M17.0024 2.58008C14.9783 2.58008 13.3301 4.22312 13.3301 6.24722V6.32964H14.3602V6.24722C14.3602 4.79495 15.545 3.61022 17.0024 3.61022C18.4549 3.61022 19.6394 4.79495 19.6394 6.24722V6.32964H20.6695V6.24722C20.6695 4.22312 19.0213 2.58008 17.0024 2.58008Z" fill="black"/>
</svg>
