<svg width="24" height="21" viewBox="0 0 24 21" fill="none" xmlns="http://www.w3.org/2000/svg">
<path d="M22.6198 12.152C22.6198 12.1863 22.6112 12.2121 22.6112 12.2378C22.6112 12.2634 22.6198 12.2893 22.6198 12.3149V12.152ZM22.0111 6.84407H15.6571C14.8853 6.84407 14.2679 6.21821 14.2679 5.45487V2.77967C14.2679 1.2106 12.973 -0.0499735 11.3953 0.00152356C10.6665 0.0271712 10.0919 0.661872 10.0919 1.39072V4.17749C10.0919 6.14966 7.30512 7.53886 7.30512 8.93643V17.8369C7.30512 18.3514 7.58801 18.823 8.04259 19.063C8.29984 19.2003 8.59995 19.3545 8.90869 19.526C10.4265 20.3406 12.1242 20.7607 13.8389 20.7607H19.2238C20.3299 20.7607 21.2216 19.869 21.2216 18.7629V18.5828C21.2216 18.2484 21.1358 17.9397 20.99 17.6652C21.5473 17.3136 21.916 16.6964 21.916 15.9845V15.4528C21.916 14.8868 21.6844 14.3896 21.3071 14.0207C22.0359 13.7463 22.5677 13.0603 22.6019 12.2457C22.5847 11.7741 22.3962 11.3454 22.1047 11.011C23.1593 10.9595 23.9997 10.0934 23.9997 9.02156L23.9999 8.83342C24.0086 7.73596 23.1168 6.844 22.0107 6.844L22.0111 6.84407ZM5.22192 7.53866H0.351601C0.154271 7.53866 0 7.69312 0 7.88165V19.0199C0 19.2086 0.154266 19.3715 0.351601 19.3715H5.22192C5.41064 19.3715 5.57352 19.2172 5.57352 19.0199V7.88165C5.56491 7.69312 5.41064 7.53866 5.22192 7.53866ZM2.78676 17.2795C2.21216 17.2795 1.74055 16.8079 1.74055 16.2333C1.74055 15.6587 2.21216 15.1871 2.78676 15.1871C3.36136 15.1871 3.83297 15.6587 3.83297 16.2333C3.82436 16.8079 3.36136 17.2795 2.78676 17.2795Z" fill="black"/>
</svg>
