<svg width="24" height="37" viewBox="0 0 24 37" fill="none" xmlns="http://www.w3.org/2000/svg">
<path d="M23.4763 10.6009L23.0236 10.1859C22.5331 9.73323 22.3446 9.01639 22.6086 8.41267L22.8349 7.84686C23.2123 6.97919 22.7218 5.99813 21.8162 5.73417L21.2125 5.58337C20.5712 5.39468 20.1185 4.82888 20.0806 4.14964L20.043 3.54594C20.0432 2.60247 19.1753 1.9235 18.27 2.07428L17.6663 2.18744C16.9873 2.30061 16.3457 1.99875 16.0441 1.39502L15.7423 0.866846C15.2896 0.0368319 14.2333 -0.189535 13.4785 0.338669L12.9879 0.678159C12.4598 1.05555 11.7053 1.05555 11.1771 0.678159L10.6865 0.300772C9.93203 -0.265038 8.83778 -0.00108467 8.38512 0.828949L8.08326 1.35713C7.74377 1.96083 7.1024 2.26266 6.42316 2.14955L5.81946 2.03638C4.87626 1.88559 4.04625 2.56456 3.97072 3.50777L3.93309 4.11148C3.89546 4.79045 3.44255 5.3565 2.80119 5.54521L2.19774 5.69627C1.2922 5.96049 0.801876 6.94129 1.17902 7.80896L1.40535 8.37477C1.66957 8.97848 1.48088 9.69538 0.990327 10.148L0.537673 10.563C-0.179224 11.1667 -0.179224 12.2986 0.537673 12.9021L0.990327 13.3171C1.48087 13.7697 1.66929 14.4866 1.40535 15.0903L1.14139 15.6564C0.764 16.524 1.25455 17.5051 2.16011 17.7691L2.76381 17.9199C3.40515 18.1086 3.85779 18.6744 3.89572 19.3536L3.93335 19.9573C3.97098 20.9005 4.83889 21.5795 5.74422 21.4287L6.34793 21.3155C7.0269 21.2024 7.66854 21.5042 7.97009 22.1079L8.27195 22.6361C8.72461 23.4661 9.78093 23.6925 10.5358 23.1643L11.0263 22.8248C11.5545 22.4474 12.309 22.4474 12.8372 22.8248L13.3277 23.2022C14.0822 23.768 15.1765 23.504 15.6291 22.674L15.931 22.1458C16.2705 21.5421 16.9118 21.2403 17.5911 21.3534L18.1948 21.4666C19.138 21.6174 19.968 20.9384 20.0435 19.9952L20.0811 19.3915C20.1188 18.7125 20.5717 18.1465 21.2131 17.9578L21.8168 17.807C22.7223 17.5427 23.2126 16.5619 22.8355 15.6943L22.6092 15.1285C22.3449 14.5247 22.5336 13.8078 23.0242 13.3552L23.4768 12.9402C24.1555 12.3363 24.1932 11.2423 23.4763 10.6009L23.4763 10.6009ZM12.007 19.3915C7.78153 19.3915 4.38595 15.9582 4.38595 11.7705C4.38595 7.54501 7.81926 4.14944 12.007 4.14944C16.2324 4.14944 19.628 7.58274 19.628 11.7705C19.628 15.9585 16.2324 19.3915 12.007 19.3915ZM17.5154 11.7327C17.5154 14.7886 15.0253 17.2411 12.007 17.2411C8.98869 17.2411 6.49858 14.751 6.49858 11.7327C6.49858 8.71471 8.95103 6.2246 12.007 6.2246C15.0629 6.2246 17.5154 8.71471 17.5154 11.7327ZM14.3084 25.8052C14.7989 25.8052 15.2892 25.6921 15.7421 25.5034V36.1804C15.7421 36.5199 15.3647 36.6709 15.1008 36.4822L12.1204 34.0677C12.0449 33.9921 11.8941 33.9921 11.7809 34.0677L8.8758 36.4446C8.61158 36.6709 8.23446 36.4822 8.23446 36.1427L8.2342 25.5412C8.68685 25.692 9.13973 25.8054 9.63006 25.8054C10.4601 25.8054 11.2146 25.5412 11.8939 25.0885L11.9315 25.0509L12.007 25.0885C12.686 25.5412 13.4784 25.8054 14.3084 25.8054L14.3084 25.8052Z" fill="black"/>
</svg>
